<?xml version="1.0" encoding="UTF-8" standalone="no"?><svg xmlns="http://www.w3.org/2000/svg" xmlns:xlink="http://www.w3.org/1999/xlink" contentScriptType="application/ecmascript" contentStyleType="text/css" height="179px" preserveAspectRatio="none" style="width:214px;height:179px;" version="1.1" viewBox="0 0 214 179" width="214px" zoomAndPan="magnify"><defs/><g><text fill="#000000" font-family="sans-serif" font-size="12" lengthAdjust="spacingAndGlyphs" textLength="98" x="16" y="17.1387">CompilationUnit</text><text fill="#000000" font-family="sans-serif" font-size="12" lengthAdjust="spacingAndGlyphs" textLength="126" x="26" y="31.1074">PackageDeclaration</text><text fill="#000000" font-family="sans-serif" font-size="12" lengthAdjust="spacingAndGlyphs" textLength="117" x="36" y="45.0762">QualifiedNameExpr</text><text fill="#000000" font-family="sans-serif" font-size="12" lengthAdjust="spacingAndGlyphs" textLength="150" x="46" y="59.0449">"com.github.javaparser"</text><text fill="#000000" font-family="sans-serif" font-size="12" lengthAdjust="spacingAndGlyphs" textLength="179" x="26" y="73.0137">SingleTypeImportDeclaration</text><text fill="#000000" font-family="sans-serif" font-size="12" lengthAdjust="spacingAndGlyphs" textLength="132" x="36" y="86.9824">ClassOrInterfaceType</text><text fill="#000000" font-family="sans-serif" font-size="12" lengthAdjust="spacingAndGlyphs" textLength="161" x="46" y="100.9512">"java.time.LocalDateTime"</text><text fill="#000000" font-family="sans-serif" font-size="12" lengthAdjust="spacingAndGlyphs" textLength="175" x="26" y="114.9199">ClassOrInterfaceDeclaration</text><text fill="#000000" font-family="sans-serif" font-size="12" lengthAdjust="spacingAndGlyphs" textLength="63" x="36" y="128.8887">NameExpr</text><text fill="#000000" font-family="sans-serif" font-size="12" lengthAdjust="spacingAndGlyphs" textLength="81" x="46" y="142.8574">"TimePrinter"</text><text fill="#000000" font-family="sans-serif" font-size="12" lengthAdjust="spacingAndGlyphs" textLength="119" x="36" y="156.8262">MethodDeclaration</text><text fill="#000000" font-family="sans-serif" font-size="12" lengthAdjust="spacingAndGlyphs" textLength="142" x="46" y="170.7949">"void main String args"</text><rect fill="none" height="2" style="stroke:#888888;stroke-width:1.0;" width="2" x="9" y="11.9844"/><rect fill="none" height="2" style="stroke:#888888;stroke-width:1.0;" width="2" x="19" y="25.9531"/><line style="stroke:#888888;stroke-width:1.0;" x1="10" x2="10" y1="14.9844" y2="26.9531"/><line style="stroke:#888888;stroke-width:1.0;" x1="10" x2="18" y1="26.9531" y2="26.9531"/><rect fill="none" height="2" style="stroke:#888888;stroke-width:1.0;" width="2" x="29" y="39.9219"/><line style="stroke:#888888;stroke-width:1.0;" x1="20" x2="20" y1="28.9531" y2="40.9219"/><line style="stroke:#888888;stroke-width:1.0;" x1="20" x2="28" y1="40.9219" y2="40.9219"/><line style="stroke:#888888;stroke-width:1.0;" x1="30" x2="30" y1="42.9219" y2="54.8906"/><line style="stroke:#888888;stroke-width:1.0;" x1="30" x2="38" y1="54.8906" y2="54.8906"/><rect fill="none" height="2" style="stroke:#888888;stroke-width:1.0;" width="2" x="19" y="67.8594"/><line style="stroke:#888888;stroke-width:1.0;" x1="10" x2="10" y1="14.9844" y2="68.8594"/><line style="stroke:#888888;stroke-width:1.0;" x1="10" x2="18" y1="68.8594" y2="68.8594"/><rect fill="none" height="2" style="stroke:#888888;stroke-width:1.0;" width="2" x="29" y="81.8281"/><line style="stroke:#888888;stroke-width:1.0;" x1="20" x2="20" y1="70.8594" y2="82.8281"/><line style="stroke:#888888;stroke-width:1.0;" x1="20" x2="28" y1="82.8281" y2="82.8281"/><line style="stroke:#888888;stroke-width:1.0;" x1="30" x2="30" y1="84.8281" y2="96.7969"/><line style="stroke:#888888;stroke-width:1.0;" x1="30" x2="38" y1="96.7969" y2="96.7969"/><rect fill="none" height="2" style="stroke:#888888;stroke-width:1.0;" width="2" x="19" y="109.7656"/><line style="stroke:#888888;stroke-width:1.0;" x1="10" x2="10" y1="14.9844" y2="110.7656"/><line style="stroke:#888888;stroke-width:1.0;" x1="10" x2="18" y1="110.7656" y2="110.7656"/><rect fill="none" height="2" style="stroke:#888888;stroke-width:1.0;" width="2" x="29" y="123.7344"/><line style="stroke:#888888;stroke-width:1.0;" x1="20" x2="20" y1="112.7656" y2="124.7344"/><line style="stroke:#888888;stroke-width:1.0;" x1="20" x2="28" y1="124.7344" y2="124.7344"/><line style="stroke:#888888;stroke-width:1.0;" x1="30" x2="30" y1="126.7344" y2="138.7031"/><line style="stroke:#888888;stroke-width:1.0;" x1="30" x2="38" y1="138.7031" y2="138.7031"/><rect fill="none" height="2" style="stroke:#888888;stroke-width:1.0;" width="2" x="29" y="151.6719"/><line style="stroke:#888888;stroke-width:1.0;" x1="20" x2="20" y1="112.7656" y2="152.6719"/><line style="stroke:#888888;stroke-width:1.0;" x1="20" x2="28" y1="152.6719" y2="152.6719"/><line style="stroke:#888888;stroke-width:1.0;" x1="30" x2="30" y1="154.6719" y2="166.6406"/><line style="stroke:#888888;stroke-width:1.0;" x1="30" x2="38" y1="166.6406" y2="166.6406"/><!--MD5=[2bb7c79de7906466e48974022f7cd98c]
@startuml
salt
{
  {T
  + CompilationUnit
  ++ PackageDeclaration
  +++ QualifiedNameExpr
  ++++"com.github.javaparser"
  ++ SingleTypeImportDeclaration
  +++ ClassOrInterfaceType
  ++++"java.time.LocalDateTime"
  ++ ClassOrInterfaceDeclaration
  +++ NameExpr
  ++++ "TimePrinter"
  +++ MethodDeclaration
  ++++ "void main String args"
  }
}
@enduml

PlantUML version 1.2020.26(Mon Dec 21 17:45:07 UTC 2020)
(GPL source distribution)
Java Runtime: OpenJDK Runtime Environment
JVM: OpenJDK 64-Bit Server VM
Default Encoding: UTF-8
Language: en
Country: null
--></g></svg>